<svg width="50" height="50" viewBox="0 0 50 50" fill="none" xmlns="http://www.w3.org/2000/svg">
<rect width="50" height="50" fill="#E5E5E5"/>
<rect x="-3312" y="-4830" width="5382" height="5973" fill="#7B7D8D"/>
<rect width="640" height="3865" transform="translate(-284 -3453)" fill="black"/>
<path d="M0 9.75C0 4.36522 4.36522 0 9.75 0H40.25C45.6348 0 50 4.36522 50 9.75V40.25C50 45.6348 45.6348 50 40.25 50H9.75C4.36522 50 0 45.6348 0 40.25V9.75Z" fill="#161B22"/>
<path fill-rule="evenodd" clip-rule="evenodd" d="M14.0599 13.75H7.75L19.1565 38.5H25.4665L14.0599 13.75ZM25.7297 13.75H25.4665H19.3943H19.1627L17.4655 16.6744H20.7475L30.8468 38.5H37.1823L25.7297 13.75ZM36.7495 22.2377C39.097 22.2377 41 20.3377 41 17.9939C41 15.6501 39.097 13.75 36.7495 13.75C34.402 13.75 32.499 15.6501 32.499 17.9939C32.499 20.3377 34.402 22.2377 36.7495 22.2377Z" fill="white"/>
<rect x="0.5" y="0.5" width="49" height="49" stroke="white"/>
</svg>
