<svg width="50" height="48" viewBox="0 0 50 48" fill="none" xmlns="http://www.w3.org/2000/svg">
<rect width="50" height="48" fill="#E5E5E5"/>
<rect x="-3160" y="-4833" width="5382" height="5973" fill="#7B7D8D"/>
<rect width="640" height="3865" transform="translate(-132 -3456)" fill="black"/>
<path d="M48.3301 1.13152C47.683 0.565696 46.902 0.194862 46.0703 0.0584842C45.2386 -0.0778935 44.3873 0.025288 43.607 0.357048L2.87657 17.6408C2.00553 18.0175 1.26407 18.6637 0.75061 19.4936C0.23715 20.3236 -0.0240291 21.298 0.0017386 22.2876C0.0275063 23.2772 0.339002 24.2352 0.894882 25.0343C1.45076 25.8335 2.22474 26.4361 3.11408 26.7621L11.3529 29.7738L15.9451 45.7349C16.0075 45.9481 16.0981 46.1511 16.2141 46.3378C16.2318 46.3665 16.2566 46.3878 16.2753 46.4157C16.4094 46.6123 16.5715 46.7861 16.7559 46.9311C16.8083 46.9731 16.8585 47.0124 16.9146 47.0497C17.1303 47.2002 17.3693 47.3102 17.6208 47.3749L17.6477 47.3773L17.6629 47.3841C17.8142 47.4165 17.9681 47.4329 18.1224 47.4331C18.1372 47.4331 18.1504 47.4257 18.1651 47.4254C18.398 47.4211 18.6288 47.379 18.8494 47.3004C18.9007 47.282 18.9447 47.2513 18.9945 47.2291C19.159 47.1575 19.3149 47.0656 19.4588 46.9555C19.5741 46.8534 19.6894 46.7513 19.8048 46.6493L25.9462 39.5226L35.1062 46.9806C35.9126 47.6404 36.9052 47.9991 37.9272 48C38.9981 47.9986 40.0359 47.6102 40.8668 46.9001C41.6976 46.1899 42.2709 45.2011 42.4905 44.0995L49.9059 5.83915C50.074 4.97803 50.0161 4.0851 49.7385 3.25588C49.461 2.42666 48.9741 1.69235 48.3301 1.13152ZM19.0236 30.5343C18.7084 30.8642 18.493 31.2846 18.4043 31.7427L17.7009 35.3354L15.9189 29.1411L25.1583 24.0842L19.0236 30.5343ZM37.8917 43.2037L27.0671 34.3903C26.6142 34.0225 26.0461 33.8476 25.476 33.9003C24.9059 33.9531 24.3756 34.2296 23.9909 34.6749L22.024 36.9567L22.7191 33.4059L38.8172 16.486C39.2015 16.0827 39.4356 15.5481 39.4771 14.979C39.5187 14.4099 39.365 13.844 39.0438 13.3837C38.7226 12.9235 38.2553 12.5994 37.7263 12.4701C37.1974 12.3408 36.6419 12.4148 36.1605 12.6789L13.057 25.3219L4.59228 22.0662L45.4535 4.88497L37.8917 43.2037Z" fill="white"/>
</svg>
