<svg width="50" height="50" viewBox="0 0 50 50" fill="none" xmlns="http://www.w3.org/2000/svg">
<rect width="50" height="50" fill="#E5E5E5"/>
<rect x="-3236" y="-4831" width="5382" height="5973" fill="#7B7D8D"/>
<rect width="640" height="3865" transform="translate(-208 -3454)" fill="black"/>
<path d="M33.5083 28.4757C32.8444 27.7578 32.0989 27.1201 31.2869 26.5754C34.5636 24.042 36.8598 20.4503 37.7841 16.4129C37.8523 16.1211 37.8622 15.8188 37.8131 15.5232C37.764 15.2276 37.657 14.9446 37.4981 14.6906C37.3393 14.4365 37.1317 14.2163 36.8875 14.0428C36.6432 13.8692 36.3671 13.7457 36.0749 13.6793C35.7827 13.6128 35.4803 13.6048 35.185 13.6557C34.8897 13.7066 34.6074 13.8154 34.3543 13.9758C34.1012 14.1363 33.8824 14.3451 33.7103 14.5904C33.5383 14.8358 33.4164 15.1127 33.3518 15.4053C32.9214 17.2938 32.0841 19.0658 30.8985 20.5975C29.7129 22.1293 28.2074 23.3839 26.487 24.2741V15.9136C26.473 15.7464 26.4397 15.5813 26.3877 15.4218C26.3727 15.2903 26.3465 15.1605 26.3093 15.0335C26.2124 14.8268 26.0845 14.6361 25.9302 14.4678C25.8896 14.4195 25.8691 14.3559 25.8247 14.3112C25.6582 14.1575 25.4697 14.0295 25.2654 13.9315C25.2074 13.9006 25.1642 13.8483 25.1033 13.8224C24.9292 13.7644 24.7488 13.7273 24.566 13.7119C24.4531 13.6788 24.3377 13.6551 24.221 13.641L22.7339 13.6364H22.7273C22.1956 13.6338 21.68 13.8187 21.2711 14.1584C20.8621 14.4982 20.5859 14.9711 20.4909 15.4943C20.396 16.0174 20.4883 16.5573 20.7518 17.0191C21.0152 17.4809 21.4329 17.8352 21.9316 18.0197V29.1349C18.3301 25.3962 15.9453 20.6545 15.0912 15.5341C15.0414 15.2399 14.9341 14.9583 14.7754 14.7056C14.6168 14.4528 14.4099 14.2338 14.1666 14.061C13.9233 13.8881 13.6484 13.7649 13.3574 13.6984C13.0665 13.6318 12.7654 13.6232 12.4711 13.6731C12.1769 13.7229 11.8954 13.8302 11.6426 13.9889C11.3898 14.1475 11.1708 14.3544 10.998 14.5977C10.8252 14.841 10.702 15.116 10.6354 15.4069C10.5689 15.6978 10.5603 15.9989 10.6101 16.2932C11.9383 24.2081 16.3519 31.2729 22.8826 35.9376C22.9758 35.9934 23.0729 36.0424 23.1731 36.0841C23.2518 36.1303 23.3334 36.1715 23.4174 36.2073C23.6711 36.3087 23.9411 36.3632 24.2143 36.3682C24.5487 36.3641 24.8778 36.285 25.1775 36.1367C25.2002 36.126 25.2261 36.131 25.2486 36.1196C25.4495 36.015 25.6334 35.8807 25.7943 35.7212C25.8266 35.6897 25.8482 35.651 25.8788 35.6177C26.0254 35.4566 26.1478 35.275 26.2422 35.0787C26.2738 35.0135 26.3027 34.9512 26.3281 34.8827C26.4279 34.632 26.4818 34.3653 26.487 34.0955L26.4882 29.2636C27.8963 29.6771 29.1651 30.4667 30.158 31.5475L33.9034 35.6312C34.1049 35.8519 34.3479 36.0307 34.6186 36.1573C34.8892 36.284 35.1822 36.3559 35.4808 36.3692C35.7793 36.3824 36.0775 36.3366 36.3583 36.2345C36.6391 36.1323 36.897 35.9757 37.1173 35.7738C37.3375 35.5718 37.5157 35.3283 37.6417 35.0574C37.7678 34.7864 37.8391 34.4933 37.8517 34.1947C37.8642 33.8961 37.8178 33.598 37.715 33.3174C37.6121 33.0368 37.455 32.7793 37.2525 32.5595L33.5083 28.4757ZM31.9835 0H18.0398C4.04607 0 0 4.04164 0 18.0154V31.9602C0 45.9539 4.04052 50 18.0165 50H31.9602C45.9539 50 50 45.9584 50 31.9846V18.0398C50 4.04607 45.9595 0 31.9835 0ZM45.4545 31.9846C45.4545 43.4393 43.437 45.4545 31.9602 45.4545H18.0165C6.55961 45.4545 4.54545 43.437 4.54545 31.9602V18.0154C4.54545 6.56073 6.56295 4.54545 18.0398 4.54545H31.9835C43.4404 4.54545 45.4545 6.56295 45.4545 18.0398V31.9846Z" fill="white"/>
</svg>
